PathFileType	4	(X/Y/Z)	/home/abdul/Desktop/myosuite/custom_workspace/IK/output/S5_12_3.trc
DataRate	CameraRate	NumFrames	NumMarkers	Units	OrigDataRate	OrigDataStartFrame	OrigNumFrames
200.0	200.0	39	3	mm	200.0	507	1350
Frame#	Time	V_Shoulder			V_Elbow			V_Wrist		
		X1	Y1	Z1	X2	Y2	Z2	X3	Y3	Z3

507	2.53	0.15942195700933684	752.6483113862797	251.51040748078364	-95.92931715986198	492.5114263932786	132.40650036731276	44.41487439016174	566.4843497974568	311.65743964849423
508	2.535	0.18291953509928285	752.5627235349639	251.5352653620968	-95.67218188046309	492.26240078083146	132.66780749820919	44.6046167000604	566.571899746184	311.83256787786877
509	2.54	0.20700288629848082	752.477823869358	251.56026635156024	-95.4166071906502	492.01602987914237	132.92948170906786	44.7936920620013	566.6581559097147	312.0088505312459
510	2.545	0.2316407253672185	752.3936901879665	251.5853972979735	-95.16262652754926	491.77242909194524	133.19139415121992	44.982032751726464	566.7430600408495	312.1862491462206
511	2.55	0.2568011685602792	752.3103978583391	251.61064556823632	-94.91026997669023	491.5317057685765	133.45341642808182	45.1695735285161	566.8265571596471	312.3647217360939
512	2.555	0.28245181020347215	752.2280196862312	251.63599905838285	-94.65956430218304	491.293959172384	133.71542073700098	45.356251732244544	566.9085958456909	312.5442227273968
513	2.56	0.3085597997297717	752.1466257929678	251.6614462018812	-94.41053298598692	491.05928047610246	133.97728000586687	45.54200736749989	566.9891284999283	312.7247029183096
514	2.565	0.3350919189973423	752.0662835013128	251.68697597523928	-94.16319627575967	490.8277527834673	134.23886802442757	45.72678317480307	567.068111576395	312.90610945798477
515	2.57	0.36201465971040925	751.9870572300979	251.71257790096965	-93.91757124075784	490.59945117625585	134.5000595702508	45.91052468902672	567.145505784292	313.0883858466427
516	2.575	0.389294300763017	751.9090083978368	251.73824204797518	-93.67367183524354	490.37444278587236	134.76073052926907	46.09318028517656	567.2212762610127	313.2714719561718
517	2.58	0.4168969853253799	751.8321953355085	251.7639590294259	-93.43150896884381	490.1527868885222	135.02075801084868	46.27470121175732	567.2953927168496	313.45530407083766
518	2.585	0.4447887974926166	751.7566732086572	251.78971999820874	-93.1910905833	489.934535022956	135.28002045732416	46.45504161200245	567.3678295522227	313.63981494758343
519	2.59	0.4729358383163674	751.6824939489189	251.81551664003823	-92.95242173504093	489.71973112970625	135.5383977479433	46.63415853330025	567.4385659483738	313.82493389529077
520	2.595	0.5013043010409391	751.6097061950454	251.8413411643253	-92.71550468301172	489.50841171068373	135.79577129717052	46.812011925198945	567.5075859325627	314.0105868722595
521	2.6	0.5298605453673367	751.5383552434652	251.86718629291045	-92.48033898119223	489.30060600795696	136.052024147302	46.988564626419524	567.5748784188785	314.1966966010714
522	2.605	0.5585711705707812	751.4684830083797	251.89304524677127	-92.24692157524441	489.0963362004934	136.30704105535136	47.16378234134762	567.6404372258453	314.3831826999095
523	2.61	0.5874030873000642	751.4001279913623	251.91891173082493	-92.01524690273524	488.8956176176089	136.56070857417052	47.33763360651321	567.7042610720557	314.5699618293261
524	2.615	0.6163235878903611	751.3333252603871	251.9447799169485	-91.7853069963939	488.6984589678392	136.8129151277797	47.510089747601086	567.7663535511024	314.7569478533803
525	2.62	0.6453004150249089	751.2681064381914	251.97064442534838	-91.55709158987553	488.5048625819286	137.06355108088755	47.681124827563835	567.8267230871106	314.944052014006
526	2.625	0.6743018285852904	751.204499699833	251.996500304413	-91.3305882255201	488.3148246686088	137.3125088025927	47.85071558643398	567.8853828721885	315.1311831174159
527	2.63	0.7032966705348104	751.1425297792799	252.02234300918835	-91.10578236361569	488.1283355818358	137.5596827242682	48.01884137345175	567.9423507871147	315.3182477313086
528	2.635	0.7322544276847603	751.0822179848337	252.04816837861793	-90.88265749269608	487.9453800981413	137.80496939164152	48.18548407214049	567.9976493065808	315.5051503916101
529	2.64	0.7611452921990846	751.0235822231703	252.07397261169362	-90.66119524042782	487.76593770276077	138.04826751109493	48.35062801897278	568.0513053902846	315.6917938174604
530	2.645	0.7899402196991883	750.9666370317419	252.09975224266373	-90.44137548466763	487.589982883205	138.2894779902236	48.514259916276366	568.1033503611447	315.87807913313884
531	2.65	0.8186109848372295	750.9113936192734	252.12550411544893	-90.22317646430002	487.417485428954	138.52850397270186	48.67636874003126	568.1538197718705	316.06390609562084
532	2.655	0.8471302342133034	750.857859914046	252.15122535741398	-90.0065748894944	487.24841073596986	138.76525086752332	48.836945643207144	568.2027532610771	316.2491733264607
533	2.66	0.8754715365193381	750.8060406196596	252.1769133526475	-89.79154605105283	487.0827201147469	138.99962637269357	48.995983855283754	568.2501944000786	316.4337785467094
534	2.665	0.903609429800354	750.7559372779264	252.20256571489767	-89.57806392855218	486.9203711006449	139.23154049347056	49.15347857858682	568.2961905314392	316.6176188135956
535	2.67	0.9315194657318538	750.7075483385439	252.2281802603135	-89.3661012970184	486.7613177652849	139.46090555526263	49.309426882058304	568.3407926002894	316.80059075773113
536	2.675	0.9591782508205902	750.6608692351737	252.25375498013827	-89.15562983190486	486.6055110278209	139.68763621131035	49.46382759306238	568.38405497935	316.9825908196333
537	2.68	0.9865634844447065	750.6158924675343	252.27928801349887	-88.94662021218122	486.4528989649437	139.9116494452941	49.6166811878084	568.426035288526	317.16351548440434
538	2.685	1.0136539936582445	750.5726076891166	252.30477762043424	-88.7390422213751	486.30342711851625	140.13286456902617	49.76798968094862	568.4667942098613	317.3432615134539
539	2.69	1.0404297646942624	750.531001800104	252.33022215529877	-88.53286484644252	486.15703879978764	140.35120321540188	49.91775651488297	568.5063952985572	317.52172617221026
540	2.695	1.0668719711102355	750.4910590450813	252.3556200406757	-88.32805637437863	486.01367538918436	140.56658932680173	50.06598644927536	568.5449047906826	317.69880745282205
541	2.7	1.0929629985290232	750.4527611151101	252.38096974192922	-88.12458448651287	485.87327663073046	140.77894913915156	50.212685451255716	568.5823914081203	317.8744042909209
542	2.705	1.1186864659383753	750.4160872537341	252.40626974251919	-87.92241635046607	485.7357809202055	140.98821116186576	50.35786058675123	568.6189261612094	318.0484167755833
543	2.71	1.1440272435218428	750.3810143664879	252.43151852019673	-87.72151870977815	485.6011255862062	141.19430615391246	50.501519913357264	568.6545821494692	318.2207463517008
544	2.715	1.168971467003818	750.347517133469	252.4567145241922	-87.52185797124491	485.46924716333797	141.39716709625773	50.6436723751255	568.689434360711	318.39129601404767
545	2.72	1.1935065485013603	750.3155681245447	252.48185615350155	-87.32340029003042	485.3400816568251	141.59672916095883	50.78432769961254	568.7235594687666	318.5599704924066
